<svg id="visual" viewBox="0 0 900 600" width="900" height="600" xmlns="http://www.w3.org/2000/svg" xmlns:xlink="http://www.w3.org/1999/xlink" version="1.1"><path d="M0 25L18.8 28C37.7 31 75.3 37 112.8 37C150.3 37 187.7 31 225.2 31C262.7 31 300.3 37 337.8 35C375.3 33 412.7 23 450.2 20C487.7 17 525.3 21 562.8 23C600.3 25 637.7 25 675.2 27C712.7 29 750.3 33 787.8 33C825.3 33 862.7 29 881.3 27L900 25L900 0L881.3 0C862.7 0 825.3 0 787.8 0C750.3 0 712.7 0 675.2 0C637.7 0 600.3 0 562.8 0C525.3 0 487.7 0 450.2 0C412.7 0 375.3 0 337.8 0C300.3 0 262.7 0 225.2 0C187.7 0 150.3 0 112.8 0C75.3 0 37.7 0 18.8 0L0 0Z" fill="#4a7eda"></path><path d="M0 61L18.8 65C37.7 69 75.3 77 112.8 76C150.3 75 187.7 65 225.2 66C262.7 67 300.3 79 337.8 75C375.3 71 412.7 51 450.2 50C487.7 49 525.3 67 562.8 69C600.3 71 637.7 57 675.2 55C712.7 53 750.3 63 787.8 71C825.3 79 862.7 85 881.3 88L900 91L900 23L881.3 25C862.7 27 825.3 31 787.8 31C750.3 31 712.7 27 675.2 25C637.7 23 600.3 23 562.8 21C525.3 19 487.7 15 450.2 18C412.7 21 375.3 31 337.8 33C300.3 35 262.7 29 225.2 29C187.7 29 150.3 35 112.8 35C75.3 35 37.7 29 18.8 26L0 23Z" fill="#3c71c4"></path><path d="M0 79L18.8 83C37.7 87 75.3 95 112.8 95C150.3 95 187.7 87 225.2 93C262.7 99 300.3 119 337.8 119C375.3 119 412.7 99 450.2 93C487.7 87 525.3 95 562.8 95C600.3 95 637.7 87 675.2 86C712.7 85 750.3 91 787.8 101C825.3 111 862.7 125 881.3 132L900 139L900 89L881.3 86C862.7 83 825.3 77 787.8 69C750.3 61 712.7 51 675.2 53C637.7 55 600.3 69 562.8 67C525.3 65 487.7 47 450.2 48C412.7 49 375.3 69 337.8 73C300.3 77 262.7 65 225.2 64C187.7 63 150.3 73 112.8 74C75.3 75 37.7 67 18.8 63L0 59Z" fill="#3065ad"></path><path d="M0 127L18.8 126C37.7 125 75.3 123 112.8 124C150.3 125 187.7 129 225.2 136C262.7 143 300.3 153 337.8 153C375.3 153 412.7 143 450.2 136C487.7 129 525.3 125 562.8 120C600.3 115 637.7 109 675.2 111C712.7 113 750.3 123 787.8 132C825.3 141 862.7 149 881.3 153L900 157L900 137L881.3 130C862.7 123 825.3 109 787.8 99C750.3 89 712.7 83 675.2 84C637.7 85 600.3 93 562.8 93C525.3 93 487.7 85 450.2 91C412.7 97 375.3 117 337.8 117C300.3 117 262.7 97 225.2 91C187.7 85 150.3 93 112.8 93C75.3 93 37.7 85 18.8 81L0 77Z" fill="#245898"></path><path d="M0 175L18.8 173C37.7 171 75.3 167 112.8 166C150.3 165 187.7 167 225.2 170C262.7 173 300.3 177 337.8 179C375.3 181 412.7 181 450.2 175C487.7 169 525.3 157 562.8 151C600.3 145 637.7 145 675.2 150C712.7 155 750.3 165 787.8 172C825.3 179 862.7 183 881.3 185L900 187L900 155L881.3 151C862.7 147 825.3 139 787.8 130C750.3 121 712.7 111 675.2 109C637.7 107 600.3 113 562.8 118C525.3 123 487.7 127 450.2 134C412.7 141 375.3 151 337.8 151C300.3 151 262.7 141 225.2 134C187.7 127 150.3 123 112.8 122C75.3 121 37.7 123 18.8 124L0 125Z" fill="#1a4c82"></path><path d="M0 211L18.8 215C37.7 219 75.3 227 112.8 227C150.3 227 187.7 219 225.2 225C262.7 231 300.3 251 337.8 255C375.3 259 412.7 247 450.2 237C487.7 227 525.3 219 562.8 214C600.3 209 637.7 207 675.2 213C712.7 219 750.3 233 787.8 238C825.3 243 862.7 239 881.3 237L900 235L900 185L881.3 183C862.7 181 825.3 177 787.8 170C750.3 163 712.7 153 675.2 148C637.7 143 600.3 143 562.8 149C525.3 155 487.7 167 450.2 173C412.7 179 375.3 179 337.8 177C300.3 175 262.7 171 225.2 168C187.7 165 150.3 163 112.8 164C75.3 165 37.7 169 18.8 171L0 173Z" fill="#12406e"></path><path d="M0 289L18.8 312C37.7 335 75.3 381 112.8 387C150.3 393 187.7 359 225.2 356C262.7 353 300.3 381 337.8 381C375.3 381 412.7 353 450.2 352C487.7 351 525.3 377 562.8 388C600.3 399 637.7 395 675.2 403C712.7 411 750.3 431 787.8 426C825.3 421 862.7 391 881.3 376L900 361L900 233L881.3 235C862.7 237 825.3 241 787.8 236C750.3 231 712.7 217 675.2 211C637.7 205 600.3 207 562.8 212C525.3 217 487.7 225 450.2 235C412.7 245 375.3 257 337.8 253C300.3 249 262.7 229 225.2 223C187.7 217 150.3 225 112.8 225C75.3 225 37.7 217 18.8 213L0 209Z" fill="#0b345a"></path><path d="M0 481L18.8 484C37.7 487 75.3 493 112.8 493C150.3 493 187.7 487 225.2 484C262.7 481 300.3 481 337.8 478C375.3 475 412.7 469 450.2 474C487.7 479 525.3 495 562.8 501C600.3 507 637.7 503 675.2 506C712.7 509 750.3 519 787.8 515C825.3 511 862.7 493 881.3 484L900 475L900 359L881.3 374C862.7 389 825.3 419 787.8 424C750.3 429 712.7 409 675.2 401C637.7 393 600.3 397 562.8 386C525.3 375 487.7 349 450.2 350C412.7 351 375.3 379 337.8 379C300.3 379 262.7 351 225.2 354C187.7 357 150.3 391 112.8 385C75.3 379 37.7 333 18.8 310L0 287Z" fill="#062846"></path><path d="M0 553L18.8 555C37.7 557 75.3 561 112.8 559C150.3 557 187.7 549 225.2 545C262.7 541 300.3 541 337.8 541C375.3 541 412.7 541 450.2 547C487.7 553 525.3 565 562.8 563C600.3 561 637.7 545 675.2 544C712.7 543 750.3 557 787.8 559C825.3 561 862.7 551 881.3 546L900 541L900 473L881.3 482C862.7 491 825.3 509 787.8 513C750.3 517 712.7 507 675.2 504C637.7 501 600.3 505 562.8 499C525.3 493 487.7 477 450.2 472C412.7 467 375.3 473 337.8 476C300.3 479 262.7 479 225.2 482C187.7 485 150.3 491 112.8 491C75.3 491 37.7 485 18.8 482L0 479Z" fill="#041d34"></path><path d="M0 601L18.8 601C37.7 601 75.3 601 112.8 601C150.3 601 187.7 601 225.2 601C262.7 601 300.3 601 337.8 601C375.3 601 412.7 601 450.2 601C487.7 601 525.3 601 562.8 601C600.3 601 637.7 601 675.2 601C712.7 601 750.3 601 787.8 601C825.3 601 862.7 601 881.3 601L900 601L900 539L881.3 544C862.7 549 825.3 559 787.8 557C750.3 555 712.7 541 675.2 542C637.7 543 600.3 559 562.8 561C525.3 563 487.7 551 450.2 545C412.7 539 375.3 539 337.8 539C300.3 539 262.7 539 225.2 543C187.7 547 150.3 555 112.8 557C75.3 559 37.7 555 18.8 553L0 551Z" fill="#001122"></path></svg>